<svg viewBox="0 0 374 80" width="374" height="80" fill="#037" shape-rendering="crispEdges" xmlns="http://www.w3.org/2000/svg" version="1.1"><path fill="#fff" d="M0,0V80H374V0H0Z"></path><path transform="matrix(2.0000,0,0,48.0000,20,16)" d="M2,1h-2V0h2v1ZM4,1h-1V0h1v1ZM7,1h-1V0h1v1ZM12,1h-1V0h1v1ZM17,1h-3V0h3v1ZM21,1h-2V0h2v1ZM24,1h-2V0h2v1ZM29,1h-3V0h3v1ZM32,1h-1V0h1v1ZM36,1h-3V0h3v1ZM38,1h-1V0h1v1ZM42,1h-2V0h2v1ZM46,1h-2V0h2v1ZM49,1h-2V0h2v1ZM53,1h-2V0h2v1ZM56,1h-1V0h1v1ZM60,1h-1V0h1v1ZM65,1h-2V0h2v1ZM67,1h-1V0h1v1ZM74,1h-4V0h4v1ZM76,1h-1V0h1v1ZM78,1h-1V0h1v1ZM83,1h-1V0h1v1ZM87,1h-2V0h2v1ZM89,1h-1V0h1v1ZM92,1h-2V0h2v1ZM95,1h-1V0h1v1ZM101,1h-2V0h2v1ZM104,1h-2V0h2v1ZM108,1h-2V0h2v1ZM112,1h-2V0h2v1ZM116,1h-3V0h3v1ZM118,1h-1V0h1v1ZM124,1h-3V0h3v1ZM126,1h-1V0h1v1ZM129,1h-2V0h2v1ZM134,1h-2V0h2v1ZM136,1h-1V0h1v1ZM140,1h-1V0h1v1ZM144,1h-1V0h1v1ZM151,1h-4V0h4v1ZM153,1h-1V0h1v1ZM156,1h-2V0h2v1ZM162,1h-3V0h3v1ZM164,1h-1V0h1v1ZM167,1h-2V0h2v1Z"></path></svg>