<svg viewBox="0 0 286 80" width="286" height="80" fill="#b11" shape-rendering="crispEdges" xmlns="http://www.w3.org/2000/svg" version="1.1"><path fill="#fee" d="M0,0V80H286V0H0Z"></path><path transform="matrix(2.4356,0,0,48.0000,20,16)" d="M2,1h-2V0h2v1ZM4,1h-1V0h1v1ZM7,1h-1V0h1v1ZM12,1h-1V0h1v1ZM15,1h-2V0h2v1ZM18,1h-1V0h1v1ZM23,1h-1V0h1v1ZM26,1h-1V0h1v1ZM32,1h-4V0h4v1ZM34,1h-1V0h1v1ZM37,1h-1V0h1v1ZM43,1h-4V0h4v1ZM45,1h-1V0h1v1ZM52,1h-4V0h4v1ZM54,1h-1V0h1v1ZM56,1h-1V0h1v1ZM59,1h-1V0h1v1ZM65,1h-4V0h4v1ZM68,1h-2V0h2v1ZM72,1h-2V0h2v1ZM75,1h-2V0h2v1ZM78,1h-1V0h1v1ZM85,1h-4V0h4v1ZM87,1h-1V0h1v1ZM90,1h-2V0h2v1ZM96,1h-3V0h3v1ZM98,1h-1V0h1v1ZM101,1h-2V0h2v1Z"></path></svg>