<svg viewBox="0 0 286 80" width="286" height="80" fill="#042" shape-rendering="crispEdges" xmlns="http://www.w3.org/2000/svg" version="1.1"><path fill="#cfe" d="M0,0V80H286V0H0Z"></path><path transform="matrix(2.0000,0,0,48.0000,20,16)" d="M2,1h-2V0h2v1ZM4,1h-1V0h1v1ZM7,1h-1V0h1v1ZM12,1h-1V0h1v1ZM17,1h-3V0h3v1ZM21,1h-2V0h2v1ZM24,1h-2V0h2v1ZM29,1h-3V0h3v1ZM32,1h-1V0h1v1ZM36,1h-3V0h3v1ZM38,1h-1V0h1v1ZM42,1h-2V0h2v1ZM46,1h-2V0h2v1ZM49,1h-2V0h2v1ZM53,1h-2V0h2v1ZM56,1h-1V0h1v1ZM60,1h-1V0h1v1ZM65,1h-2V0h2v1ZM67,1h-1V0h1v1ZM74,1h-4V0h4v1ZM76,1h-1V0h1v1ZM78,1h-1V0h1v1ZM83,1h-1V0h1v1ZM87,1h-2V0h2v1ZM89,1h-1V0h1v1ZM92,1h-2V0h2v1ZM95,1h-1V0h1v1ZM101,1h-2V0h2v1ZM105,1h-3V0h3v1ZM109,1h-1V0h1v1ZM112,1h-2V0h2v1ZM118,1h-3V0h3v1ZM120,1h-1V0h1v1ZM123,1h-2V0h2v1Z"></path></svg>