<svg viewBox="0 0 80 286" width="80" height="286" fill="#111" shape-rendering="crispEdges" xmlns="http://www.w3.org/2000/svg" version="1.1"><path fill="#ecf" d="M0,0V286H80V0H0Z"></path><path transform="matrix(48.0000,0,0,-2.0000,16,266)" d="M1,2H0v-2h1v2zM1,4H0v-1h1v1zM1,7H0v-1h1v1zM1,15H0v-4h1v4zM1,17H0v-1h1v1zM1,20H0v-1h1v1zM1,23H0v-1h1v1zM1,26H0v-2h1v2zM1,29H0v-1h1v1zM1,34H0v-1h1v1zM1,37H0v-1h1v1zM1,43H0v-4h1v4zM1,45H0v-1h1v1zM1,51H0v-4h1v4zM1,53H0v-1h1v1zM1,56H0v-1h1v1zM1,62H0v-2h1v2zM1,64H0v-1h1v1zM1,67H0v-1h1v1zM1,72H0v-1h1v1zM1,75H0v-2h1v2zM1,78H0v-1h1v1zM1,81H0v-1h1v1zM1,84H0v-2h1v2zM1,90H0v-2h1v2zM1,93H0v-1h1v1zM1,95H0v-1h1v1zM1,103H0v-4h1v4zM1,107H0v-1h1v1zM1,109H0v-1h1v1zM1,112H0v-2h1v2zM1,118H0v-3h1v3zM1,120H0v-1h1v1zM1,123H0v-2h1v2z"></path></svg>